#tb 0: 1/25
#media_type 0: video
#codec_id 0: rawvideo
#dimensions 0: 1920x1080
#sar 0: 0/1
0,          0,          0,        1,  8294400, 0x4c24b4d8
0,          1,          1,        1,  8294400, 0xfcaa4734
0,          2,          2,        1,  8294400, 0xc9a32414
0,          3,          3,        1,  8294400, 0x7a42ba51
0,          4,          4,        1,  8294400, 0xcf8b2dd5
0,          5,          5,        1,  8294400, 0x2f0701ec
0,          6,          6,        1,  8294400, 0x863f665f
0,          7,          7,        1,  8294400, 0xef2e70bd
0,          8,          8,        1,  8294400, 0xeb221c2b
0,          9,          9,        1,  8294400, 0x3c074b8f
0,         10,         10,        1,  8294400, 0xb246c65a
0,         11,         11,        1,  8294400, 0x94ede8e8
0,         12,         12,        1,  8294400, 0x2143a40b
0,         13,         13,        1,  8294400, 0xc04eb9e3
0,         14,         14,        1,  8294400, 0x00f3a419
0,         15,         15,        1,  8294400, 0x6ae90b65
0,         16,         16,        1,  8294400, 0x36375084
